<svg width="86" height="83" viewBox="0 0 86 83" fill="none" xmlns="http://www.w3.org/2000/svg">
<path d="M65.8688 31.8513C63.6932 26.9952 59.9396 22.9668 55.1834 20.384C50.4273 17.8012 44.9312 16.8064 39.5378 17.5522C34.1445 18.298 29.1515 20.7432 25.3245 24.5129C21.4975 28.2826 19.0477 33.1688 18.3508 38.4221C14.9597 39.2118 11.985 41.1848 9.99149 43.9665C7.99799 46.7482 7.12456 50.145 7.53707 53.5116C7.94958 56.8783 9.6193 59.9804 12.2291 62.2288C14.839 64.4773 18.2072 65.7155 21.6941 65.7084H60.8183C65.0841 65.697 69.2035 64.195 72.4253 61.4764C75.647 58.7578 77.7565 55.0037 78.3688 50.8989C78.9811 46.7941 78.0556 42.612 75.7609 39.1154C73.4663 35.6188 69.9555 33.0407 65.8688 31.8513ZM60.8183 58.7917H21.6941C19.8075 58.7917 17.9981 58.063 16.6641 56.7659C15.3301 55.4688 14.5806 53.7095 14.5806 51.8751C14.5806 50.0407 15.3301 48.2814 16.6641 46.9842C17.9981 45.6871 19.8075 44.9584 21.6941 44.9584C22.6374 44.9584 23.5421 44.594 24.2091 43.9455C24.8761 43.2969 25.2508 42.4173 25.2508 41.5001C25.2599 37.4098 26.7599 33.4551 29.4843 30.3386C32.2087 27.222 35.9811 25.1454 40.1314 24.4777C44.2816 23.81 48.5409 24.5944 52.1525 26.6915C55.7642 28.7887 58.4943 32.0628 59.8579 35.9321C60.0666 36.52 60.4344 37.0422 60.9226 37.4439C61.4109 37.8456 62.0014 38.1119 62.6322 38.2146C65.2393 38.6824 67.5739 40.0771 69.1813 42.1269C70.7887 44.1768 71.5537 46.7351 71.3273 49.3034C71.1009 51.8718 69.8993 54.2662 67.9566 56.0202C66.0138 57.7742 63.4692 58.7622 60.8183 58.7917Z" fill="#83859C"/>
</svg>
