<svg width="0" height="0" class="hidden">
  <symbol fill="none" xmlns="http://www.w3.org/2000/svg" viewBox="0 0 24 24" id="right_arrow">
    <path d="M13.4697 8.53033C13.1768 8.23744 13.1768 7.76256 13.4697 7.46967C13.7626 7.17678 14.2374 7.17678 14.5303 7.46967L18.5303 11.4697C18.8232 11.7626 18.8232 12.2374 18.5303 12.5303L14.5303 16.5303C14.2374 16.8232 13.7626 16.8232 13.4697 16.5303C13.1768 16.2374 13.1768 15.7626 13.4697 15.4697L16.1893 12.75H6.5C6.08579 12.75 5.75 12.4142 5.75 12C5.75 11.5858 6.08579 11.25 6.5 11.25H16.1893L13.4697 8.53033Z" fill="#558EFF"></path>
  </symbol>
  <symbol fill="none" xmlns="http://www.w3.org/2000/svg" viewBox="0 0 24 24" id="left_arrow_circle">
    <path d="M8.29 11.29C8.19896 11.3851 8.12759 11.4972 8.08 11.62C7.97998 11.8635 7.97998 12.1365 8.08 12.38C8.12759 12.5028 8.19896 12.6149 8.29 12.71L11.29 15.71C11.4783 15.8983 11.7337 16.0041 12 16.0041C12.2663 16.0041 12.5217 15.8983 12.71 15.71C12.8983 15.5217 13.0041 15.2663 13.0041 15C13.0041 14.7337 12.8983 14.4783 12.71 14.29L11.41 13H15C15.2652 13 15.5196 12.8946 15.7071 12.7071C15.8946 12.5196 16 12.2652 16 12C16 11.7348 15.8946 11.4804 15.7071 11.2929C15.5196 11.1054 15.2652 11 15 11H11.41L12.71 9.71C12.8037 9.61704 12.8781 9.50644 12.9289 9.38458C12.9797 9.26272 13.0058 9.13201 13.0058 9C13.0058 8.86799 12.9797 8.73728 12.9289 8.61542C12.8781 8.49356 12.8037 8.38296 12.71 8.29C12.617 8.19627 12.5064 8.12188 12.3846 8.07111C12.2627 8.02034 12.132 7.9942 12 7.9942C11.868 7.9942 11.7373 8.02034 11.6154 8.07111C11.4936 8.12188 11.383 8.19627 11.29 8.29L8.29 11.29ZM2 12C2 13.9778 2.58649 15.9112 3.6853 17.5557C4.78412 19.2002 6.3459 20.4819 8.17317 21.2388C10.0004 21.9957 12.0111 22.1937 13.9509 21.8079C15.8907 21.422 17.6725 20.4696 19.0711 19.0711C20.4696 17.6725 21.422 15.8907 21.8079 13.9509C22.1937 12.0111 21.9957 10.0004 21.2388 8.17317C20.4819 6.3459 19.2002 4.78412 17.5557 3.6853C15.9112 2.58649 13.9778 2 12 2C10.6868 2 9.38642 2.25866 8.17317 2.7612C6.95991 3.26375 5.85752 4.00035 4.92893 4.92893C3.05357 6.8043 2 9.34784 2 12ZM20 12C20 13.5823 19.5308 15.129 18.6518 16.4446C17.7727 17.7602 16.5233 18.7855 15.0615 19.391C13.5997 19.9965 11.9911 20.155 10.4393 19.8463C8.88743 19.5376 7.46197 18.7757 6.34315 17.6569C5.22433 16.538 4.4624 15.1126 4.15372 13.5607C3.84504 12.0089 4.00346 10.4003 4.60896 8.93853C5.21447 7.47672 6.23984 6.22729 7.55544 5.34824C8.87103 4.46919 10.4177 4 12 4C14.1217 4 16.1566 4.84285 17.6569 6.34315C19.1571 7.84344 20 9.87827 20 12Z" fill="#999999"></path>
  </symbol>
  <symbol fill="none" xmlns="http://www.w3.org/2000/svg" viewBox="0 0 24 24" id="favorite">
    <path d="M16.1309 3.18554C13.4009 2.72787 10.5991 2.72787 7.86918 3.18554C6.87184 3.35274 6.07757 4.11841 5.8776 5.11118C4.96148 9.65927 4.91149 14.3393 5.73026 18.906L6.06362 20.7652C6.1664 21.3385 6.86531 21.5676 7.28757 21.1665L11.3113 17.344C11.6972 16.9773 12.3028 16.9773 12.6888 17.344L16.7125 21.1665C17.1348 21.5676 17.8337 21.3385 17.9365 20.7652L18.2698 18.906C19.0886 14.3394 19.0386 9.65927 18.1225 5.11118C17.9225 4.11841 17.1282 3.35274 16.1309 3.18554Z" fill="#83859C"/>
  </symbol>
  <svg  xmlns="http://www.w3.org/2000/svg" viewBox="0 0 24 24" fill="none" id='unfavorite'>
    <path fill-rule="evenodd" clip-rule="evenodd" d="M15.9243 4.41833C13.3312 3.9836 10.6691 3.9836 8.07598 4.41833C7.58798 4.50014 7.20039 4.87507 7.10311 5.35801C6.21803 9.75199 6.16974 14.2735 6.96077 18.6854L7.12432 19.5976L10.7948 16.1106C11.4703 15.4689 12.53 15.4689 13.2055 16.1106L16.876 19.5976L17.0395 18.6854C17.8306 14.2735 17.7823 9.75199 16.8972 5.35801C16.7999 4.87507 16.4123 4.50014 15.9243 4.41833ZM7.82797 2.93898C10.5853 2.47672 13.415 2.47672 16.1723 2.93898C17.2716 3.12326 18.1472 3.96707 18.3677 5.06181C19.29 9.64072 19.3403 14.3525 18.516 18.9501L18.2945 20.1854C18.1086 21.2223 16.8446 21.6367 16.0809 20.9112L12.1723 17.1981C12.0759 17.1064 11.9245 17.1064 11.828 17.1981L7.91944 20.9112C7.15574 21.6367 5.8917 21.2223 5.70579 20.1854L5.48431 18.9501C4.65999 14.3525 4.71032 9.64073 5.63265 5.06181C5.85316 3.96707 6.72875 3.12326 7.82797 2.93898Z" fill="#83859C"/>
  </svg>

  <symbol fill="none" xmlns="http://www.w3.org/2000/svg" viewBox="0 0 86 83" id='cloud'>
    <path d="M65.8688 31.8513C63.6932 26.9952 59.9396 22.9668 55.1834 20.384C50.4273 17.8012 44.9312 16.8064 39.5378 17.5522C34.1445 18.298 29.1515 20.7432 25.3245 24.5129C21.4975 28.2826 19.0477 33.1688 18.3508 38.4221C14.9597 39.2118 11.985 41.1848 9.99149 43.9665C7.99799 46.7482 7.12456 50.145 7.53707 53.5116C7.94958 56.8783 9.6193 59.9804 12.2291 62.2288C14.839 64.4773 18.2072 65.7155 21.6941 65.7084H60.8183C65.0841 65.697 69.2035 64.195 72.4253 61.4764C75.647 58.7578 77.7565 55.0037 78.3688 50.8989C78.9811 46.7941 78.0556 42.612 75.7609 39.1154C73.4663 35.6188 69.9555 33.0407 65.8688 31.8513ZM60.8183 58.7917H21.6941C19.8075 58.7917 17.9981 58.063 16.6641 56.7659C15.3301 55.4688 14.5806 53.7095 14.5806 51.8751C14.5806 50.0407 15.3301 48.2814 16.6641 46.9842C17.9981 45.6871 19.8075 44.9584 21.6941 44.9584C22.6374 44.9584 23.5421 44.594 24.2091 43.9455C24.8761 43.2969 25.2508 42.4173 25.2508 41.5001C25.2599 37.4098 26.7599 33.4551 29.4843 30.3386C32.2087 27.222 35.9811 25.1454 40.1314 24.4777C44.2816 23.81 48.5409 24.5944 52.1525 26.6915C55.7642 28.7887 58.4943 32.0628 59.8579 35.9321C60.0666 36.52 60.4344 37.0422 60.9226 37.4439C61.4109 37.8456 62.0014 38.1119 62.6322 38.2146C65.2393 38.6824 67.5739 40.0771 69.1813 42.1269C70.7887 44.1768 71.5537 46.7351 71.3273 49.3034C71.1009 51.8718 69.8993 54.2662 67.9566 56.0202C66.0138 57.7742 63.4692 58.7622 60.8183 58.7917Z" fill="#83859C"/>
  </symbol>
  <symbol fill="none" xmlns="http://www.w3.org/2000/svg" viewBox="0 0 24 24" id='user'>
    <path fill-rule="evenodd" clip-rule="evenodd" d="M7.75 7.5C7.75 5.15279 9.65279 3.25 12 3.25C14.3472 3.25 16.25 5.15279 16.25 7.5C16.25 9.84721 14.3472 11.75 12 11.75C9.65279 11.75 7.75 9.84721 7.75 7.5ZM12 4.75C10.4812 4.75 9.25 5.98122 9.25 7.5C9.25 9.01878 10.4812 10.25 12 10.25C13.5188 10.25 14.75 9.01878 14.75 7.5C14.75 5.98122 13.5188 4.75 12 4.75Z" fill="white"/>
    <path fill-rule="evenodd" clip-rule="evenodd" d="M8 14.75C6.75736 14.75 5.75 15.7574 5.75 17V18.1883C5.75 18.2064 5.76311 18.2218 5.78097 18.2247C9.89972 18.8972 14.1003 18.8972 18.219 18.2247C18.2369 18.2218 18.25 18.2064 18.25 18.1883V17C18.25 15.7574 17.2426 14.75 16 14.75H15.6591C15.6328 14.75 15.6066 14.7542 15.5815 14.7623L14.716 15.045C12.9512 15.6212 11.0488 15.6212 9.28398 15.045L8.41847 14.7623C8.39342 14.7542 8.36722 14.75 8.34087 14.75H8ZM4.25 17C4.25 14.9289 5.92893 13.25 8 13.25H8.34087C8.52536 13.25 8.70869 13.2792 8.88407 13.3364L9.74959 13.6191C11.2119 14.0965 12.7881 14.0965 14.2504 13.6191L15.1159 13.3364C15.2913 13.2792 15.4746 13.25 15.6591 13.25H16C18.0711 13.25 19.75 14.9289 19.75 17V18.1883C19.75 18.9415 19.2041 19.5837 18.4607 19.7051C14.1819 20.4037 9.8181 20.4037 5.53927 19.7051C4.79588 19.5837 4.25 18.9415 4.25 18.1883V17Z" fill="white"/>
  </symbol>
  <symbol fill="none" xmlns="http://www.w3.org/2000/svg" viewBox="0 0 38 32" id='arrow'>
    <path fill-rule="evenodd" clip-rule="evenodd" d="M3.59996 3.70003C3.76564 3.47912 4.07904 3.43434 4.29996 3.60003L7.89996 6.30003C8.12087 6.46571 8.16564 6.77912 7.99996 7.00003C7.83427 7.22094 7.52087 7.26571 7.29996 7.10003L4.69319 5.14496C7.69847 21.5076 22.9712 29.4043 35.9089 27.0084L36.091 27.9917C22.6496 30.4808 6.77054 22.2626 3.69417 5.24108L1.69996 7.90003C1.53427 8.12094 1.22087 8.16572 0.999956 8.00003C0.779042 7.83434 0.734271 7.52094 0.899956 7.30003L3.59996 3.70003Z" fill="#83859C"/>
  </symbol>


</svg>
