<svg width="0" height="0" class="hidden">
  <symbol fill="none" xmlns="http://www.w3.org/2000/svg" viewBox="0 0 24 24" id="arrow-right">
    <path d="M13.4697 8.53033C13.1768 8.23744 13.1768 7.76256 13.4697 7.46967C13.7626 7.17678 14.2374 7.17678 14.5303 7.46967L18.5303 11.4697C18.8232 11.7626 18.8232 12.2374 18.5303 12.5303L14.5303 16.5303C14.2374 16.8232 13.7626 16.8232 13.4697 16.5303C13.1768 16.2374 13.1768 15.7626 13.4697 15.4697L16.1893 12.75H6.5C6.08579 12.75 5.75 12.4142 5.75 12C5.75 11.5858 6.08579 11.25 6.5 11.25H16.1893L13.4697 8.53033Z" fill="currentColor"></path>
  </symbol>
  <symbol fill="none" xmlns="http://www.w3.org/2000/svg" viewBox="0 0 24 24" id="arrow-left-circle">
    <path d="M8.29 11.29C8.19896 11.3851 8.12759 11.4972 8.08 11.62C7.97998 11.8635 7.97998 12.1365 8.08 12.38C8.12759 12.5028 8.19896 12.6149 8.29 12.71L11.29 15.71C11.4783 15.8983 11.7337 16.0041 12 16.0041C12.2663 16.0041 12.5217 15.8983 12.71 15.71C12.8983 15.5217 13.0041 15.2663 13.0041 15C13.0041 14.7337 12.8983 14.4783 12.71 14.29L11.41 13H15C15.2652 13 15.5196 12.8946 15.7071 12.7071C15.8946 12.5196 16 12.2652 16 12C16 11.7348 15.8946 11.4804 15.7071 11.2929C15.5196 11.1054 15.2652 11 15 11H11.41L12.71 9.71C12.8037 9.61704 12.8781 9.50644 12.9289 9.38458C12.9797 9.26272 13.0058 9.13201 13.0058 9C13.0058 8.86799 12.9797 8.73728 12.9289 8.61542C12.8781 8.49356 12.8037 8.38296 12.71 8.29C12.617 8.19627 12.5064 8.12188 12.3846 8.07111C12.2627 8.02034 12.132 7.9942 12 7.9942C11.868 7.9942 11.7373 8.02034 11.6154 8.07111C11.4936 8.12188 11.383 8.19627 11.29 8.29L8.29 11.29ZM2 12C2 13.9778 2.58649 15.9112 3.6853 17.5557C4.78412 19.2002 6.3459 20.4819 8.17317 21.2388C10.0004 21.9957 12.0111 22.1937 13.9509 21.8079C15.8907 21.422 17.6725 20.4696 19.0711 19.0711C20.4696 17.6725 21.422 15.8907 21.8079 13.9509C22.1937 12.0111 21.9957 10.0004 21.2388 8.17317C20.4819 6.3459 19.2002 4.78412 17.5557 3.6853C15.9112 2.58649 13.9778 2 12 2C10.6868 2 9.38642 2.25866 8.17317 2.7612C6.95991 3.26375 5.85752 4.00035 4.92893 4.92893C3.05357 6.8043 2 9.34784 2 12ZM20 12C20 13.5823 19.5308 15.129 18.6518 16.4446C17.7727 17.7602 16.5233 18.7855 15.0615 19.391C13.5997 19.9965 11.9911 20.155 10.4393 19.8463C8.88743 19.5376 7.46197 18.7757 6.34315 17.6569C5.22433 16.538 4.4624 15.1126 4.15372 13.5607C3.84504 12.0089 4.00346 10.4003 4.60896 8.93853C5.21447 7.47672 6.23984 6.22729 7.55544 5.34824C8.87103 4.46919 10.4177 4 12 4C14.1217 4 16.1566 4.84285 17.6569 6.34315C19.1571 7.84344 20 9.87827 20 12Z" fill="currentColor"></path>
  </symbol>
  <symbol fill="none" xmlns="http://www.w3.org/2000/svg" viewBox="0 0 24 24" id="favorite">
    <path d="M16.1309 3.18554C13.4009 2.72787 10.5991 2.72787 7.86918 3.18554C6.87184 3.35274 6.07757 4.11841 5.8776 5.11118C4.96148 9.65927 4.91149 14.3393 5.73026 18.906L6.06362 20.7652C6.1664 21.3385 6.86531 21.5676 7.28757 21.1665L11.3113 17.344C11.6972 16.9773 12.3028 16.9773 12.6888 17.344L16.7125 21.1665C17.1348 21.5676 17.8337 21.3385 17.9365 20.7652L18.2698 18.906C19.0886 14.3394 19.0386 9.65927 18.1225 5.11118C17.9225 4.11841 17.1282 3.35274 16.1309 3.18554Z" fill="currentColor"/>
  </symbol>
  <symbol fill="none" xmlns="http://www.w3.org/2000/svg" viewBox="0 0 24 24" id='unfavorite'>
    <path fill-rule="evenodd" clip-rule="evenodd" d="M15.9243 4.41833C13.3312 3.9836 10.6691 3.9836 8.07598 4.41833C7.58798 4.50014 7.20039 4.87507 7.10311 5.35801C6.21803 9.75199 6.16974 14.2735 6.96077 18.6854L7.12432 19.5976L10.7948 16.1106C11.4703 15.4689 12.53 15.4689 13.2055 16.1106L16.876 19.5976L17.0395 18.6854C17.8306 14.2735 17.7823 9.75199 16.8972 5.35801C16.7999 4.87507 16.4123 4.50014 15.9243 4.41833ZM7.82797 2.93898C10.5853 2.47672 13.415 2.47672 16.1723 2.93898C17.2716 3.12326 18.1472 3.96707 18.3677 5.06181C19.29 9.64072 19.3403 14.3525 18.516 18.9501L18.2945 20.1854C18.1086 21.2223 16.8446 21.6367 16.0809 20.9112L12.1723 17.1981C12.0759 17.1064 11.9245 17.1064 11.828 17.1981L7.91944 20.9112C7.15574 21.6367 5.8917 21.2223 5.70579 20.1854L5.48431 18.9501C4.65999 14.3525 4.71032 9.64073 5.63265 5.06181C5.85316 3.96707 6.72875 3.12326 7.82797 2.93898Z" fill="currentColor"/>
  </symbol>
  <symbol fill="none" xmlns="http://www.w3.org/2000/svg" viewBox="0 0 86 83" id='cloud'>
    <path d="M65.8688 31.8513C63.6932 26.9952 59.9396 22.9668 55.1834 20.384C50.4273 17.8012 44.9312 16.8064 39.5378 17.5522C34.1445 18.298 29.1515 20.7432 25.3245 24.5129C21.4975 28.2826 19.0477 33.1688 18.3508 38.4221C14.9597 39.2118 11.985 41.1848 9.99149 43.9665C7.99799 46.7482 7.12456 50.145 7.53707 53.5116C7.94958 56.8783 9.6193 59.9804 12.2291 62.2288C14.839 64.4773 18.2072 65.7155 21.6941 65.7084H60.8183C65.0841 65.697 69.2035 64.195 72.4253 61.4764C75.647 58.7578 77.7565 55.0037 78.3688 50.8989C78.9811 46.7941 78.0556 42.612 75.7609 39.1154C73.4663 35.6188 69.9555 33.0407 65.8688 31.8513ZM60.8183 58.7917H21.6941C19.8075 58.7917 17.9981 58.063 16.6641 56.7659C15.3301 55.4688 14.5806 53.7095 14.5806 51.8751C14.5806 50.0407 15.3301 48.2814 16.6641 46.9842C17.9981 45.6871 19.8075 44.9584 21.6941 44.9584C22.6374 44.9584 23.5421 44.594 24.2091 43.9455C24.8761 43.2969 25.2508 42.4173 25.2508 41.5001C25.2599 37.4098 26.7599 33.4551 29.4843 30.3386C32.2087 27.222 35.9811 25.1454 40.1314 24.4777C44.2816 23.81 48.5409 24.5944 52.1525 26.6915C55.7642 28.7887 58.4943 32.0628 59.8579 35.9321C60.0666 36.52 60.4344 37.0422 60.9226 37.4439C61.4109 37.8456 62.0014 38.1119 62.6322 38.2146C65.2393 38.6824 67.5739 40.0771 69.1813 42.1269C70.7887 44.1768 71.5537 46.7351 71.3273 49.3034C71.1009 51.8718 69.8993 54.2662 67.9566 56.0202C66.0138 57.7742 63.4692 58.7622 60.8183 58.7917Z" fill="currentColor"/>
  </symbol>
  <symbol fill="none" xmlns="http://www.w3.org/2000/svg" viewBox="0 0 24 24" id='user'>
    <path fill-rule="evenodd" clip-rule="evenodd" d="M7.75 7.5C7.75 5.15279 9.65279 3.25 12 3.25C14.3472 3.25 16.25 5.15279 16.25 7.5C16.25 9.84721 14.3472 11.75 12 11.75C9.65279 11.75 7.75 9.84721 7.75 7.5ZM12 4.75C10.4812 4.75 9.25 5.98122 9.25 7.5C9.25 9.01878 10.4812 10.25 12 10.25C13.5188 10.25 14.75 9.01878 14.75 7.5C14.75 5.98122 13.5188 4.75 12 4.75Z" fill="currentColor"/>
    <path fill-rule="evenodd" clip-rule="evenodd" d="M8 14.75C6.75736 14.75 5.75 15.7574 5.75 17V18.1883C5.75 18.2064 5.76311 18.2218 5.78097 18.2247C9.89972 18.8972 14.1003 18.8972 18.219 18.2247C18.2369 18.2218 18.25 18.2064 18.25 18.1883V17C18.25 15.7574 17.2426 14.75 16 14.75H15.6591C15.6328 14.75 15.6066 14.7542 15.5815 14.7623L14.716 15.045C12.9512 15.6212 11.0488 15.6212 9.28398 15.045L8.41847 14.7623C8.39342 14.7542 8.36722 14.75 8.34087 14.75H8ZM4.25 17C4.25 14.9289 5.92893 13.25 8 13.25H8.34087C8.52536 13.25 8.70869 13.2792 8.88407 13.3364L9.74959 13.6191C11.2119 14.0965 12.7881 14.0965 14.2504 13.6191L15.1159 13.3364C15.2913 13.2792 15.4746 13.25 15.6591 13.25H16C18.0711 13.25 19.75 14.9289 19.75 17V18.1883C19.75 18.9415 19.2041 19.5837 18.4607 19.7051C14.1819 20.4037 9.8181 20.4037 5.53927 19.7051C4.79588 19.5837 4.25 18.9415 4.25 18.1883V17Z" fill="currentColor"/>
  </symbol>
  <symbol fill="none" xmlns="http://www.w3.org/2000/svg" viewBox="0 0 38 32" id='arrow'>
    <path fill-rule="evenodd" clip-rule="evenodd" d="M3.59996 3.70003C3.76564 3.47912 4.07904 3.43434 4.29996 3.60003L7.89996 6.30003C8.12087 6.46571 8.16564 6.77912 7.99996 7.00003C7.83427 7.22094 7.52087 7.26571 7.29996 7.10003L4.69319 5.14496C7.69847 21.5076 22.9712 29.4043 35.9089 27.0084L36.091 27.9917C22.6496 30.4808 6.77054 22.2626 3.69417 5.24108L1.69996 7.90003C1.53427 8.12094 1.22087 8.16572 0.999956 8.00003C0.779042 7.83434 0.734271 7.52094 0.899956 7.30003L3.59996 3.70003Z" fill="currentColor"/>
  </symbol>
  <symbol fill="none" xmlns="http://www.w3.org/2000/svg" viewBox="0 0 24 24" id="arrow_down">
    <path d="M12.75 16.1893L15.4697 13.4697C15.7626 13.1768 16.2374 13.1768 16.5303 13.4697C16.8232 13.7626 16.8232 14.2374 16.5303 14.5303L12.5303 18.5303C12.2374 18.8232 11.7626 18.8232 11.4697 18.5303L7.46967 14.5303C7.17678 14.2374 7.17678 13.7626 7.46967 13.4697C7.76256 13.1768 8.23744 13.1768 8.53033 13.4697L11.25 16.1893L11.25 6.5C11.25 6.08579 11.5858 5.75 12 5.75C12.4142 5.75 12.75 6.08579 12.75 6.5L12.75 16.1893Z" fill="currentColor"/>
  </symbol>
  <symbol fill="none" xmlns="http://www.w3.org/2000/svg" viewBox="0 0 24 24" id="arrow_up">
    <path d="M8.53033 10.5303C8.23744 10.8232 7.76256 10.8232 7.46967 10.5303C7.17678 10.2374 7.17678 9.76256 7.46967 9.46967L11.4697 5.46967C11.7626 5.17678 12.2374 5.17678 12.5303 5.46967L16.5303 9.46967C16.8232 9.76256 16.8232 10.2374 16.5303 10.5303C16.2374 10.8232 15.7626 10.8232 15.4697 10.5303L12.75 7.81066L12.75 17.5C12.75 17.9142 12.4142 18.25 12 18.25C11.5858 18.25 11.25 17.9142 11.25 17.5L11.25 7.81066L8.53033 10.5303Z" fill="currentColor"/>
  </symbol>
  <symbol fill="none" xmlns="http://www.w3.org/2000/svg" viewBox="0 0 24 24" id="location">
    <path fill-rule="evenodd" clip-rule="evenodd" d="M7.25003 10C7.25003 7.37665 9.37667 5.25 12 5.25C14.6234 5.25 16.75 7.37665 16.75 10C16.75 12.6234 14.6234 14.75 12 14.75C9.37667 14.75 7.25003 12.6234 7.25003 10ZM12 6.75C10.2051 6.75 8.75003 8.20507 8.75003 10C8.75003 11.7949 10.2051 13.25 12 13.25C13.795 13.25 15.25 11.7949 15.25 10C15.25 8.20507 13.795 6.75 12 6.75Z" fill="currentColor"/>
    <path fill-rule="evenodd" clip-rule="evenodd" d="M3.52439 8.85685C3.87872 4.55824 7.47087 1.25 11.7841 1.25H12.216C16.5292 1.25 20.1213 4.55824 20.4757 8.85685C20.666 11.166 19.9527 13.4589 18.4861 15.2526L13.693 21.1144C12.818 22.1845 11.1821 22.1845 10.307 21.1144L5.51399 15.2526C4.04733 13.4589 3.33405 11.166 3.52439 8.85685ZM11.7841 2.75C8.25152 2.75 5.30952 5.45948 5.01932 8.98008C4.8609 10.9019 5.45455 12.8102 6.67521 14.3031L11.4683 20.1649C11.7431 20.501 12.2569 20.501 12.5318 20.1649L17.3248 14.3031C18.5455 12.8102 19.1391 10.9019 18.9807 8.98008C18.6905 5.45948 15.7485 2.75 12.216 2.75H11.7841Z" fill="currentColor"/>
  </symbol>
  <symbol fill="none" xmlns="http://www.w3.org/2000/svg" viewBox="0 0 24 24" id="eye-visible-icon">
    <path fill-rule="evenodd" clip-rule="evenodd" d="M8.25 12C8.25 9.92893 9.92893 8.25 12 8.25C14.0711 8.25 15.75 9.92893 15.75 12C15.75 14.0711 14.0711 15.75 12 15.75C9.92893 15.75 8.25 14.0711 8.25 12ZM12 9.75C10.7574 9.75 9.75 10.7574 9.75 12C9.75 13.2426 10.7574 14.25 12 14.25C13.2426 14.25 14.25 13.2426 14.25 12C14.25 10.7574 13.2426 9.75 12 9.75Z" fill="currentColor"/>
    <path fill-rule="evenodd" clip-rule="evenodd" d="M4.32343 10.6464C3.90431 11.2503 3.75 11.7227 3.75 12C3.75 12.2773 3.90431 12.7497 4.32343 13.3536C4.72857 13.9374 5.33078 14.5703 6.09267 15.155C7.61978 16.3271 9.71345 17.25 12 17.25C14.2865 17.25 16.3802 16.3271 17.9073 15.155C18.6692 14.5703 19.2714 13.9374 19.6766 13.3536C20.0957 12.7497 20.25 12.2773 20.25 12C20.25 11.7227 20.0957 11.2503 19.6766 10.6464C19.2714 10.0626 18.6692 9.42972 17.9073 8.84497C16.3802 7.67292 14.2865 6.75 12 6.75C9.71345 6.75 7.61978 7.67292 6.09267 8.84497C5.33078 9.42972 4.72857 10.0626 4.32343 10.6464ZM5.17941 7.65503C6.90965 6.32708 9.31598 5.25 12 5.25C14.684 5.25 17.0903 6.32708 18.8206 7.65503C19.6874 8.32028 20.4032 9.06244 20.9089 9.79115C21.4006 10.4997 21.75 11.2773 21.75 12C21.75 12.7227 21.4006 13.5003 20.9089 14.2089C20.4032 14.9376 19.6874 15.6797 18.8206 16.345C17.0903 17.6729 14.684 18.75 12 18.75C9.31598 18.75 6.90965 17.6729 5.17941 16.345C4.31262 15.6797 3.59681 14.9376 3.0911 14.2089C2.59937 13.5003 2.25 12.7227 2.25 12C2.25 11.2773 2.59937 10.4997 3.0911 9.79115C3.59681 9.06244 4.31262 8.32028 5.17941 7.65503Z" fill="currentColor"/>
  </symbol>
  <symbol fill="none" xmlns="http://www.w3.org/2000/svg" viewBox="0 0 24 24" id="eye-not-visible-icon">
    <path fill-rule="evenodd" clip-rule="evenodd" d="M20.5303 4.53033C20.8232 4.23744 20.8232 3.76256 20.5303 3.46967C20.2374 3.17678 19.7626 3.17678 19.4697 3.46967L3.46967 19.4697C3.17678 19.7626 3.17678 20.2374 3.46967 20.5303C3.76256 20.8232 4.23744 20.8232 4.53033 20.5303L7.37723 17.6834C8.74353 18.3266 10.3172 18.75 12 18.75C14.684 18.75 17.0903 17.6729 18.8206 16.345C19.6874 15.6797 20.4032 14.9376 20.9089 14.2089C21.4006 13.5003 21.75 12.7227 21.75 12C21.75 11.2773 21.4006 10.4997 20.9089 9.79115C20.4032 9.06244 19.6874 8.32028 18.8206 7.65503C18.5585 7.45385 18.2808 7.25842 17.989 7.07163L20.5303 4.53033ZM16.8995 8.16113L15.1287 9.93196C15.5213 10.5248 15.75 11.2357 15.75 12C15.75 14.0711 14.0711 15.75 12 15.75C11.2357 15.75 10.5248 15.5213 9.93196 15.1287L8.51524 16.5454C9.58077 16.9795 10.7621 17.25 12 17.25C14.2865 17.25 16.3802 16.3271 17.9073 15.155C18.6692 14.5703 19.2714 13.9374 19.6766 13.3536C20.0957 12.7497 20.25 12.2773 20.25 12C20.25 11.7227 20.0957 11.2503 19.6766 10.6464C19.2714 10.0626 18.6692 9.42972 17.9073 8.84497C17.5941 8.60461 17.2571 8.37472 16.8995 8.16113ZM11.0299 14.0307C11.3237 14.1713 11.6526 14.25 12 14.25C13.2426 14.25 14.25 13.2426 14.25 12C14.25 11.6526 14.1713 11.3237 14.0307 11.0299L11.0299 14.0307Z" fill="currentColor"/>
    <path d="M12 5.25C13.0323 5.25 14.0236 5.40934 14.9511 5.68101C15.1296 5.73328 15.1827 5.95662 15.0513 6.0881L14.2267 6.91265C14.1648 6.97451 14.0752 6.99928 13.99 6.97967C13.3506 6.83257 12.6839 6.75 12 6.75C9.71345 6.75 7.61978 7.67292 6.09267 8.84497C5.33078 9.42972 4.72857 10.0626 4.32343 10.6464C3.90431 11.2503 3.75 11.7227 3.75 12C3.75 12.2773 3.90431 12.7497 4.32343 13.3536C4.67725 13.8635 5.18138 14.4107 5.81091 14.9307C5.92677 15.0264 5.93781 15.2015 5.83156 15.3078L5.12265 16.0167C5.03234 16.107 4.88823 16.1149 4.79037 16.0329C4.09739 15.4517 3.51902 14.8255 3.0911 14.2089C2.59937 13.5003 2.25 12.7227 2.25 12C2.25 11.2773 2.59937 10.4997 3.0911 9.79115C3.59681 9.06244 4.31262 8.32028 5.17941 7.65503C6.90965 6.32708 9.31598 5.25 12 5.25Z" fill="currentColor"/>
    <path d="M12 8.25C12.1185 8.25 12.2357 8.25549 12.3513 8.26624C12.5482 8.28453 12.6194 8.51991 12.4796 8.6597L11.2674 9.87196C10.6141 10.0968 10.0968 10.6141 9.87196 11.2674L8.6597 12.4796C8.51991 12.6194 8.28453 12.5482 8.26624 12.3513C8.25549 12.2357 8.25 12.1185 8.25 12C8.25 9.92893 9.92893 8.25 12 8.25Z" fill="currentColor"/>
  </symbol>
  <symbol fill="none" xmlns="http://www.w3.org/2000/svg" viewBox="0 0 24 24" id="wind">
    <path d="M3.5 9C3.69778 9 3.89112 8.94135 4.05557 8.83147C4.22002 8.72159 4.34819 8.56541 4.42388 8.38268C4.49957 8.19996 4.51937 7.99889 4.48079 7.80491C4.4422 7.61093 4.34696 7.43275 4.20711 7.29289C4.06725 7.15304 3.88907 7.0578 3.69509 7.01921C3.50111 6.98063 3.30004 7.00043 3.11732 7.07612C2.93459 7.15181 2.77841 7.27998 2.66853 7.44443C2.55865 7.60888 2.5 7.80222 2.5 8C2.5 8.26522 2.60536 8.51957 2.79289 8.70711C2.98043 8.89464 3.23478 9 3.5 9ZM7.5 9H14.5C15.2956 9 16.0587 8.68393 16.6213 8.12132C17.1839 7.55871 17.5 6.79565 17.5 6C17.5 5.20435 17.1839 4.44129 16.6213 3.87868C16.0587 3.31607 15.2956 3 14.5 3C13.9739 3.00218 13.4573 3.13994 13 3.4C12.8854 3.46533 12.7849 3.55268 12.7042 3.65703C12.6235 3.76138 12.5643 3.88066 12.5299 4.008C12.4955 4.13534 12.4866 4.26822 12.5038 4.399C12.521 4.52978 12.5639 4.65587 12.63 4.77C12.6962 4.88375 12.7841 4.98333 12.8889 5.06302C12.9936 5.14271 13.113 5.20094 13.2403 5.23439C13.3675 5.26783 13.5002 5.27583 13.6305 5.25791C13.7609 5.24 13.8865 5.19653 14 5.13C14.1538 5.04722 14.3253 5.00264 14.5 5C14.7652 5 15.0196 5.10536 15.2071 5.29289C15.3946 5.48043 15.5 5.73478 15.5 6C15.5 6.26522 15.3946 6.51957 15.2071 6.70711C15.0196 6.89464 14.7652 7 14.5 7H7.5C7.23478 7 6.98043 7.10536 6.79289 7.29289C6.60536 7.48043 6.5 7.73478 6.5 8C6.5 8.26522 6.60536 8.51957 6.79289 8.70711C6.98043 8.89464 7.23478 9 7.5 9ZM3.5 13H10.5C10.7652 13 11.0196 12.8946 11.2071 12.7071C11.3946 12.5196 11.5 12.2652 11.5 12C11.5 11.7348 11.3946 11.4804 11.2071 11.2929C11.0196 11.1054 10.7652 11 10.5 11H3.5C3.23478 11 2.98043 11.1054 2.79289 11.2929C2.60536 11.4804 2.5 11.7348 2.5 12C2.5 12.2652 2.60536 12.5196 2.79289 12.7071C2.98043 12.8946 3.23478 13 3.5 13ZM20.5 9C20.6978 9 20.8911 8.94135 21.0556 8.83147C21.22 8.72159 21.3482 8.56541 21.4239 8.38268C21.4996 8.19996 21.5194 7.99889 21.4808 7.80491C21.4422 7.61093 21.347 7.43275 21.2071 7.29289C21.0673 7.15304 20.8891 7.0578 20.6951 7.01921C20.5011 6.98063 20.3 7.00043 20.1173 7.07612C19.9346 7.15181 19.7784 7.27998 19.6685 7.44443C19.5586 7.60888 19.5 7.80222 19.5 8C19.5 8.26522 19.6054 8.51957 19.7929 8.70711C19.9804 8.89464 20.2348 9 20.5 9ZM18.5 11H14.5C14.2348 11 13.9804 11.1054 13.7929 11.2929C13.6054 11.4804 13.5 11.7348 13.5 12C13.5 12.2652 13.6054 12.5196 13.7929 12.7071C13.9804 12.8946 14.2348 13 14.5 13H18.5C18.7652 13 19.0196 13.1054 19.2071 13.2929C19.3946 13.4804 19.5 13.7348 19.5 14C19.5 14.2652 19.3946 14.5196 19.2071 14.7071C19.0196 14.8946 18.7652 15 18.5 15C18.2348 15 17.9804 15.1054 17.7929 15.2929C17.6054 15.4804 17.5 15.7348 17.5 16C17.5 16.2652 17.6054 16.5196 17.7929 16.7071C17.9804 16.8946 18.2348 17 18.5 17C19.2956 17 20.0587 16.6839 20.6213 16.1213C21.1839 15.5587 21.5 14.7956 21.5 14C21.5 13.2044 21.1839 12.4413 20.6213 11.8787C20.0587 11.3161 19.2956 11 18.5 11ZM12.5 15H8.5C8.23478 15 7.98043 15.1054 7.79289 15.2929C7.60536 15.4804 7.5 15.7348 7.5 16C7.5 16.2652 7.60536 16.5196 7.79289 16.7071C7.98043 16.8946 8.23478 17 8.5 17H12.5C12.7652 17 13.0196 17.1054 13.2071 17.2929C13.3946 17.4804 13.5 17.7348 13.5 18C13.5 18.2652 13.3946 18.5196 13.2071 18.7071C13.0196 18.8946 12.7652 19 12.5 19C12.3253 18.9974 12.1538 18.9528 12 18.87C11.8862 18.7976 11.7589 18.7491 11.6258 18.7272C11.4927 18.7053 11.3566 18.7105 11.2256 18.7426C11.0946 18.7747 10.9715 18.833 10.8636 18.9139C10.7557 18.9948 10.6652 19.0967 10.5978 19.2135C10.5303 19.3302 10.4871 19.4594 10.4708 19.5933C10.4546 19.7272 10.4655 19.863 10.5031 19.9925C10.5407 20.1221 10.6041 20.2427 10.6895 20.347C10.7749 20.4514 10.8805 20.5375 11 20.6C11.4573 20.8601 11.9739 20.9978 12.5 21C13.2956 21 14.0587 20.6839 14.6213 20.1213C15.1839 19.5587 15.5 18.7956 15.5 18C15.5 17.2044 15.1839 16.4413 14.6213 15.8787C14.0587 15.3161 13.2956 15 12.5 15ZM4.5 15H3.5C3.23478 15 2.98043 15.1054 2.79289 15.2929C2.60536 15.4804 2.5 15.7348 2.5 16C2.5 16.2652 2.60536 16.5196 2.79289 16.7071C2.98043 16.8946 3.23478 17 3.5 17H4.5C4.76522 17 5.01957 16.8946 5.20711 16.7071C5.39464 16.5196 5.5 16.2652 5.5 16C5.5 15.7348 5.39464 15.4804 5.20711 15.2929C5.01957 15.1054 4.76522 15 4.5 15Z" fill="currentColor"/>
  </symbol>
  <symbol fill="none" xmlns="http://www.w3.org/2000/svg" viewBox="0 0 24 24" id="rainy">
    <path d="M10.5 7.99955C10.5 4.50955 7.2 2.25955 7.06 2.16955C6.89463 2.05778 6.6996 1.99805 6.5 1.99805C6.3004 1.99805 6.10537 2.05778 5.94 2.16955C5.8 2.26955 2.5 4.54955 2.5 7.99955C2.5 9.06042 2.92143 10.0778 3.67157 10.828C4.42172 11.5781 5.43913 11.9996 6.5 11.9996C7.56087 11.9996 8.57828 11.5781 9.32843 10.828C10.0786 10.0778 10.5 9.06042 10.5 7.99955ZM6.5 9.99955C5.96957 9.99955 5.46086 9.78884 5.08579 9.41377C4.71071 9.03869 4.5 8.52999 4.5 7.99955C4.56853 7.27747 4.78078 6.57639 5.12425 5.93754C5.46771 5.29869 5.93547 4.73497 6.5 4.27955C7.06664 4.73303 7.53587 5.29627 7.87954 5.9355C8.22321 6.57473 8.43425 7.27678 8.5 7.99955C8.5 8.52999 8.28929 9.03869 7.91421 9.41377C7.53914 9.78884 7.03043 9.99955 6.5 9.99955ZM18.06 2.16955C17.8946 2.05778 17.6996 1.99805 17.5 1.99805C17.3004 1.99805 17.1054 2.05778 16.94 2.16955C16.8 2.26955 13.5 4.54955 13.5 7.99955C13.5 9.06042 13.9214 10.0778 14.6716 10.828C15.4217 11.5781 16.4391 11.9996 17.5 11.9996C18.5609 11.9996 19.5783 11.5781 20.3284 10.828C21.0786 10.0778 21.5 9.06042 21.5 7.99955C21.5 4.50955 18.2 2.25955 18.06 2.16955ZM17.5 9.99955C16.9696 9.99955 16.4609 9.78884 16.0858 9.41377C15.7107 9.03869 15.5 8.52999 15.5 7.99955C15.5685 7.27747 15.7808 6.57639 16.1242 5.93754C16.4677 5.29869 16.9355 4.73497 17.5 4.27955C18.0666 4.73303 18.5359 5.29627 18.8795 5.9355C19.2232 6.57473 19.4343 7.27678 19.5 7.99955C19.5 8.52999 19.2893 9.03869 18.9142 9.41377C18.5391 9.78884 18.0304 9.99955 17.5 9.99955ZM13.06 12.1696C12.8946 12.0578 12.6996 11.998 12.5 11.998C12.3004 11.998 12.1054 12.0578 11.94 12.1696C11.8 12.2696 8.5 14.5496 8.5 17.9996C8.5 19.0604 8.92143 20.0778 9.67157 20.828C10.4217 21.5781 11.4391 21.9996 12.5 21.9996C13.5609 21.9996 14.5783 21.5781 15.3284 20.828C16.0786 20.0778 16.5 19.0604 16.5 17.9996C16.5 14.5096 13.2 12.2596 13.06 12.1696ZM12.5 19.9996C11.9696 19.9996 11.4609 19.7888 11.0858 19.4138C10.7107 19.0387 10.5 18.53 10.5 17.9996C10.5685 17.2775 10.7808 16.5764 11.1242 15.9375C11.4677 15.2987 11.9355 14.735 12.5 14.2796C13.0666 14.733 13.5359 15.2963 13.8795 15.9355C14.2232 16.5747 14.4343 17.2768 14.5 17.9996C14.5 18.53 14.2893 19.0387 13.9142 19.4138C13.5391 19.7888 13.0304 19.9996 12.5 19.9996Z" fill="currentColor"/>
  </symbol>
  <symbol fill="none" xmlns="http://www.w3.org/2000/svg" viewBox="0 0 24 24" id="explore">
    <path fill-rule="evenodd" clip-rule="evenodd" d="M12 4.75C7.99594 4.75 4.75 7.99594 4.75 12C4.75 16.0041 7.99594 19.25 12 19.25C16.0041 19.25 19.25 16.0041 19.25 12C19.25 7.99594 16.0041 4.75 12 4.75ZM3.25 12C3.25 7.16751 7.16751 3.25 12 3.25C16.8325 3.25 20.75 7.16751 20.75 12C20.75 16.8325 16.8325 20.75 12 20.75C7.16751 20.75 3.25 16.8325 3.25 12Z" fill="currentColor"/>
    <path fill-rule="evenodd" clip-rule="evenodd" d="M10.8498 9.30875C9.91622 10.0768 9.29253 11.1571 9.09417 12.3496L8.65623 14.9824C8.42881 16.3496 10.0186 17.2675 11.0889 16.3869L13.15 14.6912C14.0836 13.9232 14.7073 12.8429 14.9056 11.6504L15.3436 9.01756C15.571 7.65035 13.9813 6.73251 12.9109 7.61307L10.8498 9.30875ZM12 10.5C11.1716 10.5 10.5 11.1716 10.5 12C10.5 12.8284 11.1716 13.5 12 13.5C12.8284 13.5 13.5 12.8284 13.5 12C13.5 11.1716 12.8284 10.5 12 10.5Z" fill="currentColor"/>
  </symbol>
  <symbol fill="none" xmlns="http://www.w3.org/2000/svg" viewBox="0 0 24 24" id="pressure">
    <path d="M15.29 10.29L12.51 13.07C12.3436 13.0257 12.1723 13.0022 12 13C11.4696 13 10.9609 13.2107 10.5858 13.5858C10.2107 13.9609 10 14.4696 10 15C10.0023 15.1722 10.0258 15.3435 10.07 15.51L9.29003 16.29C9.1963 16.383 9.12191 16.4936 9.07114 16.6154C9.02037 16.7373 8.99423 16.868 8.99423 17C8.99423 17.132 9.02037 17.2627 9.07114 17.3846C9.12191 17.5064 9.1963 17.617 9.29003 17.71C9.38299 17.8037 9.49359 17.8781 9.61545 17.9289C9.73731 17.9797 9.86802 18.0058 10 18.0058C10.132 18.0058 10.2627 17.9797 10.3846 17.9289C10.5065 17.8781 10.6171 17.8037 10.71 17.71L11.49 16.93C11.6565 16.9743 11.8278 16.9978 12 17C12.5305 17 13.0392 16.7893 13.4142 16.4142C13.7893 16.0391 14 15.5304 14 15C13.9978 14.8278 13.9743 14.6565 13.93 14.49L16.71 11.71C16.8983 11.5217 17.0041 11.2663 17.0041 11C17.0041 10.7337 16.8983 10.4783 16.71 10.29C16.5217 10.1017 16.2663 9.99591 16 9.99591C15.7337 9.99591 15.4783 10.1017 15.29 10.29ZM12 4C10.6868 4 9.38645 4.25866 8.1732 4.7612C6.95994 5.26375 5.85755 6.00035 4.92896 6.92893C3.0536 8.8043 2.00003 11.3478 2.00003 14C1.99511 15.9806 2.58375 17.9172 3.69003 19.56C3.83855 19.7801 4.06844 19.9322 4.32911 19.9829C4.58979 20.0335 4.8599 19.9785 5.08003 19.83C5.30016 19.6815 5.45227 19.4516 5.50291 19.1909C5.55354 18.9302 5.49855 18.6601 5.35003 18.44C4.54455 17.2355 4.08131 15.8349 4.00978 14.3877C3.93826 12.9405 4.26113 11.501 4.94392 10.223C5.62671 8.94501 6.64378 7.87643 7.88653 7.13139C9.12928 6.38634 10.5511 5.99281 12 5.99281C13.449 5.99281 14.8708 6.38634 16.1135 7.13139C17.3563 7.87643 18.3734 8.94501 19.0561 10.223C19.7389 11.501 20.0618 12.9405 19.9903 14.3877C19.9188 15.8349 19.4555 17.2355 18.65 18.44C18.5763 18.5489 18.5248 18.6714 18.4985 18.8002C18.4722 18.9291 18.4716 19.0619 18.4966 19.191C18.5217 19.3201 18.572 19.443 18.6447 19.5527C18.7173 19.6623 18.8109 19.7566 18.92 19.83C19.0856 19.9412 19.2806 20.0004 19.48 20C19.6438 20.0002 19.8052 19.9603 19.9499 19.8835C20.0946 19.8068 20.2183 19.6957 20.31 19.56C21.4163 17.9172 22.005 15.9806 22 14C22 11.3478 20.9465 8.8043 19.0711 6.92893C17.1957 5.05357 14.6522 4 12 4Z" fill="currentColor"/>
  </symbol>
  <symbol fill="none" xmlns="http://www.w3.org/2000/svg" viewBox="0 0 24 24" id="login">
    <path d="M12 18.25C11.5858 18.25 11.25 18.5858 11.25 19C11.25 19.4142 11.5858 19.75 12 19.75H18C18.9665 19.75 19.75 18.9665 19.75 18V6C19.75 5.0335 18.9665 4.25 18 4.25H12C11.5858 4.25 11.25 4.58579 11.25 5C11.25 5.41421 11.5858 5.75 12 5.75L18 5.75C18.1381 5.75 18.25 5.86193 18.25 6L18.25 18C18.25 18.1381 18.1381 18.25 18 18.25H12Z" fill="currentColor"/>
    <path fill-rule="evenodd" clip-rule="evenodd" d="M3.25 13.1152C3.25 13.8056 3.80964 14.3652 4.5 14.3652H9.1126C9.11912 14.4386 9.12595 14.512 9.13308 14.5854L9.18711 15.1413C9.26954 15.9894 10.1701 16.4973 10.9386 16.1291C12.5728 15.3459 14.1514 14.1706 15.4049 12.8618C15.8691 12.3771 15.8691 11.6128 15.4049 11.1281L15.3057 11.0245C14.0522 9.71578 12.5728 8.64403 10.9386 7.86084C10.1701 7.49258 9.26954 8.00049 9.18711 8.8486L9.13308 9.40448C9.12595 9.47787 9.11912 9.55128 9.1126 9.6247L4.5 9.6247C3.80964 9.6247 3.25 10.1843 3.25 10.8747V13.1152ZM10.5532 13.5307C10.5107 13.1537 10.1913 12.8652 9.80797 12.8652H4.75L4.75 11.1247H9.80797C10.2041 11.1247 10.5319 10.8167 10.5565 10.4214C10.5747 10.1305 10.5978 9.83987 10.626 9.54959L10.6417 9.38824C11.9466 10.0607 13.1342 10.9409 14.1577 11.995C13.7303 12.4351 13.2744 12.8448 12.7932 13.2219C12.122 13.7478 11.4018 14.21 10.6417 14.6017L10.626 14.4403C10.5978 14.15 10.5747 13.8594 10.5565 13.5685C10.5557 13.5558 10.5546 13.5432 10.5532 13.5307Z" fill="currentColor"/>
  </symbol>
  <symbol fill="none" xmlns="http://www.w3.org/2000/svg" viewBox="0 0 24 24" id="logout">
    <path d="M12 18.25C11.5858 18.25 11.25 18.5858 11.25 19C11.25 19.4142 11.5858 19.75 12 19.75H18C18.9665 19.75 19.75 18.9665 19.75 18V6C19.75 5.0335 18.9665 4.25 18 4.25H12C11.5858 4.25 11.25 4.58579 11.25 5C11.25 5.41421 11.5858 5.75 12 5.75L18 5.75C18.1381 5.75 18.25 5.86193 18.25 6L18.25 18C18.25 18.1381 18.1381 18.25 18 18.25H12Z" fill="currentColor"/>
    <path fill-rule="evenodd" clip-rule="evenodd" d="M14.5031 14.3652C15.1934 14.3652 15.7531 13.8056 15.7531 13.1152V10.8747C15.7531 10.1843 15.1934 9.6247 14.5031 9.6247L9.89048 9.6247C9.88396 9.55128 9.87713 9.47787 9.87 9.40448L9.81597 8.8486C9.73354 8.00049 8.83294 7.49258 8.06451 7.86084C6.43029 8.64403 4.95085 9.71578 3.69736 11.0245L3.59816 11.1281C3.13395 11.6128 3.13395 12.3771 3.59815 12.8618L3.69736 12.9654C4.95085 14.2741 6.43029 15.3459 8.06451 16.1291C8.83293 16.4973 9.73354 15.9894 9.81597 15.1413L9.87 14.5854C9.87713 14.512 9.88396 14.4386 9.89048 14.3652H14.5031ZM9.19511 12.8652C8.92874 12.8652 8.69326 13.0045 8.56008 13.216C8.49523 13.319 8.45464 13.4391 8.44656 13.5685C8.42842 13.8594 8.40524 14.15 8.37703 14.4403L8.36135 14.6017C7.3253 14.0677 6.36316 13.4028 5.49838 12.6239C5.27402 12.4218 5.05622 12.2121 4.84538 11.995C5.86892 10.9409 7.05651 10.0607 8.36135 9.38824L8.37703 9.54959C8.40524 9.83987 8.42842 10.1305 8.44656 10.4214C8.47122 10.8167 8.79902 11.1247 9.19511 11.1247H14.2531V12.8652H9.19511Z" fill="currentColor"/>
  </symbol>
</svg>
